<svg width="97" height="28" viewBox="0 0 97 28" fill="none" xmlns="http://www.w3.org/2000/svg">
<path fill-rule="evenodd" clip-rule="evenodd" d="M96.4835 0H0V28H96.4835V0ZM73.1073 3.56412L67.8948 22.2488H64.4908L69.7032 3.56412H73.1073ZM74.9157 22.2488L80.1281 3.56412H76.7241L71.5116 22.2488H74.9157ZM92.1752 20.0887C91.9891 20.1427 91.8295 20.1697 91.67 20.1697C91.1115 20.1697 90.8455 19.9267 90.8455 19.2247V13.9055C90.8455 11.0974 88.6382 9.74734 86.0586 9.74734C84.0906 9.74734 83.0003 9.99035 80.8993 10.8544L80.4206 13.6625L83.1864 13.9595L83.5853 12.5824C84.1438 12.2854 84.7023 12.2314 85.4203 12.2314C87.3617 12.2314 87.3883 13.7165 87.3883 14.9855V15.3905C86.7766 15.3095 86.0852 15.2825 85.4203 15.2825C82.6545 15.2825 79.809 15.9846 79.809 19.0087C79.809 21.5738 81.7769 22.5188 83.5322 22.5188C85.4735 22.5188 86.7234 21.3308 87.4149 20.0617C87.5745 21.5468 88.4521 22.5188 90.0743 22.5188C90.8189 22.5188 91.5902 22.3028 92.255 21.9518L92.1752 20.0887ZM84.7555 20.0077C83.7183 20.0077 83.346 19.3867 83.346 18.6037C83.346 17.2806 84.4098 16.9296 85.6597 16.9296C86.2182 16.9296 86.8298 17.0106 87.3883 17.0916C87.2819 19.1167 85.9788 20.0077 84.7555 20.0077ZM62.2303 9.99035H58.6134V14.3915H62.2303V9.99035ZM58.6134 17.8476H62.2303V22.2488H58.6134V17.8476ZM56.087 17.9556L53.3478 17.6856L52.7893 19.5757H48.88L55.5817 11.8264L55.3158 9.99035H44.7047L44.2792 14.2835L46.7791 14.5535L47.3109 12.6634H51.0873L44.4388 20.4127L44.7845 22.2488H55.3424L56.087 17.9556ZM36.0616 9.74734C31.7268 9.74734 29.5727 12.7174 29.5727 16.3086C29.5727 20.2237 32.1523 22.5188 35.8755 22.5188C39.7316 22.5188 42.524 20.0347 42.524 16.1196C42.4974 12.7174 40.3965 9.74734 36.0616 9.74734ZM33.1363 16.0656C33.1363 18.1986 34.1203 19.8187 35.9818 19.8187C37.7636 19.8187 38.9338 18.3606 38.9604 16.0116C38.9604 13.5275 37.6307 12.4204 36.0084 12.4204C34.2266 12.4204 33.1363 13.7435 33.1363 16.0656ZM26.4611 19.5757H28.0568V22.2488H23.0039V15.3365C23.0039 13.2035 22.3125 12.3934 20.9562 12.3934C19.3073 12.3934 18.6159 13.5815 18.6159 15.3095V19.5757H20.2115V22.2488H15.1586V15.3365C15.1586 13.2035 14.4672 12.3934 13.0843 12.3934C11.4355 12.3934 10.744 13.5815 10.744 15.3095V19.5757H13.0577V22.2488H5.71771V19.5757H7.31336V12.6364H5.71771V9.96335H10.7706V11.7994C11.4886 10.5034 12.7386 9.72034 14.4406 9.72034C16.1692 9.72034 17.7915 10.5574 18.3765 12.3664C19.0414 10.7464 20.3977 9.72034 22.3125 9.72034C24.4932 9.72034 26.4611 11.0434 26.4611 13.9595V19.5757Z" fill="white"/>
</svg>
