<svg width="40" height="41" viewBox="0 0 40 41" fill="none" xmlns="http://www.w3.org/2000/svg">
<g clip-path="url(#clip0_4322_6203)">
<path d="M-0.0390625 0.5H39.9609V40.5H-0.0390625V0.5Z" fill="black"/>
<path d="M34.0223 25.5718H36.2981V29.3519H29.085V19.593C29.085 16.5843 28.0821 15.4657 26.1535 15.4657C23.8006 15.4657 22.8748 17.1629 22.8748 19.5158V25.5332H25.1506V29.3133H17.8989V19.593C17.8989 16.5843 16.896 15.4657 14.9674 15.4657C12.6144 15.4657 11.6887 17.1629 11.6887 19.5158V25.5332H14.9674V29.3133H4.39844V25.5332H6.67423V15.8128H4.39844V12.0327H11.6501V14.6171C12.6916 12.8042 14.4659 11.6855 16.896 11.6855C19.3647 11.6855 21.6791 12.8813 22.4891 15.3885C23.4148 13.1127 25.382 11.6855 28.0821 11.6855C31.2065 11.6855 34.0223 13.5756 34.0223 17.6258V25.5718Z" fill="white"/>
</g>
<defs>
<clipPath id="clip0_4322_6203">
<rect width="40" height="40" fill="white" transform="translate(0 0.5)"/>
</clipPath>
</defs>
</svg>
