<svg width="17" height="17" viewBox="0 0 17 17" fill="none" xmlns="http://www.w3.org/2000/svg">
<g clip-path="url(#clip0_4381_85)">
<path d="M11.5698 9.78509H5.75215C5.25318 9.78509 4.78255 9.87581 4.34028 10.0573C3.898 10.25 3.51243 10.508 3.18356 10.8312C2.85469 11.1544 2.59953 11.5372 2.41809 11.9794C2.2253 12.4217 2.12891 12.898 2.12891 13.4083V14.8542C2.12891 15.081 2.19411 15.2596 2.32453 15.3901C2.45494 15.5205 2.63355 15.5857 2.86036 15.5857C3.07583 15.5857 3.24877 15.5205 3.37918 15.3901C3.5096 15.2596 3.5748 15.081 3.5748 14.8542V13.4083C3.5748 12.7959 3.7846 12.28 4.20419 11.8604C4.62379 11.4408 5.13977 11.231 5.75215 11.231H11.5698C12.1821 11.231 12.6981 11.4408 13.1177 11.8604C13.5373 12.28 13.7471 12.7959 13.7471 13.4083V14.8542C13.7471 15.081 13.8123 15.2596 13.9427 15.3901C14.0732 15.5205 14.2461 15.5857 14.4616 15.5857C14.6884 15.5857 14.867 15.5205 14.9974 15.3901C15.1278 15.2596 15.193 15.081 15.193 14.8542V13.4083C15.193 12.898 15.0966 12.4217 14.9038 11.9794C14.7224 11.5372 14.4672 11.1544 14.1384 10.8312C13.8095 10.508 13.4239 10.25 12.9816 10.0573C12.5394 9.87581 12.0687 9.78509 11.5698 9.78509ZM8.66096 8.32218C9.17128 8.32218 9.64757 8.23146 10.0898 8.05001C10.5321 7.85722 10.9149 7.59923 11.2381 7.27603C11.5613 6.95283 11.8193 6.57009 12.012 6.12782C12.1935 5.68554 12.2842 5.20925 12.2842 4.69893C12.2842 4.18861 12.1935 3.71232 12.012 3.27004C11.8193 2.82777 11.5613 2.44503 11.2381 2.12183C10.9149 1.79863 10.5321 1.54064 10.0898 1.34785C9.64757 1.16641 9.17128 1.07568 8.66096 1.07568C8.15064 1.07568 7.67435 1.16641 7.23207 1.34785C6.7898 1.54064 6.40706 1.79863 6.08386 2.12183C5.76066 2.44503 5.50267 2.82777 5.30988 3.27004C5.12843 3.71232 5.03771 4.18861 5.03771 4.69893C5.03771 5.20925 5.12843 5.68554 5.30988 6.12782C5.50267 6.57009 5.76066 6.95283 6.08386 7.27603C6.40706 7.59923 6.7898 7.85722 7.23207 8.05001C7.67435 8.23146 8.15064 8.32218 8.66096 8.32218ZM8.66096 2.52158C9.27334 2.52158 9.78932 2.73138 10.2089 3.15097C10.6285 3.57057 10.8383 4.08655 10.8383 4.69893C10.8383 5.31131 10.6285 5.8273 10.2089 6.24689C9.78932 6.66649 9.27334 6.87628 8.66096 6.87628C8.04858 6.87628 7.53259 6.66649 7.113 6.24689C6.6934 5.8273 6.48361 5.31131 6.48361 4.69893C6.48361 4.08655 6.6934 3.57057 7.113 3.15097C7.53259 2.73138 8.04858 2.52158 8.66096 2.52158Z" fill="#005E5E"/>
</g>
<defs>
<clipPath id="clip0_4381_85">
<rect width="13.0641" height="14.51" fill="white" transform="translate(2.12891 1.07568)"/>
</clipPath>
</defs>
</svg>
