<svg width="16" height="9" viewBox="0 0 16 9" fill="none" xmlns="http://www.w3.org/2000/svg">
<g clip-path="url(#clip0_4322_6131)">
<path d="M15.1499 8.4627C14.9332 8.6627 14.6832 8.7627 14.3999 8.7627C14.1166 8.7627 13.8666 8.6627 13.6499 8.4627L7.9999 2.78769L2.3499 8.4627C2.13323 8.6627 1.88324 8.7627 1.5999 8.7627C1.31657 8.7627 1.06657 8.6627 0.849902 8.4627C0.633234 8.24603 0.524902 7.99603 0.524902 7.7127C0.524902 7.42936 0.633234 7.17936 0.849902 6.9627L7.2499 0.562694C7.36657 0.446027 7.49573 0.362694 7.6374 0.312694C7.77907 0.262694 7.8999 0.237694 7.9999 0.237694C8.0999 0.237694 8.22073 0.262694 8.3624 0.312694C8.50407 0.362694 8.63323 0.446027 8.7499 0.562694L15.1499 6.9627C15.3666 7.17936 15.4749 7.42936 15.4749 7.7127C15.4749 7.99603 15.3666 8.24603 15.1499 8.4627Z" fill="#3032D9"/>
</g>
<defs>
<clipPath id="clip0_4322_6131">
<rect width="14.95" height="8.525" fill="white" transform="matrix(1 0 0 -1 0.524902 8.7627)"/>
</clipPath>
</defs>
</svg>
