<svg width="8" height="8" viewBox="0 0 8 8" fill="none" xmlns="http://www.w3.org/2000/svg">
<g clip-path="url(#clip0_4413_2209)">
<path d="M4.80268 3.9933L7.82609 0.964824C7.94203 0.848687 8 0.714685 8 0.562814C8 0.410943 7.94203 0.276941 7.82609 0.160804C7.71014 0.0536009 7.57637 0 7.42475 0C7.27313 0 7.13935 0.0536009 7.02341 0.160804L4 3.20268L0.976589 0.160804C0.860646 0.0536009 0.726868 0 0.575251 0C0.423634 0 0.289856 0.0536009 0.173913 0.160804C0.0579703 0.276941 0 0.410943 0 0.562814C0 0.714685 0.0579703 0.848687 0.173913 0.964824L3.19732 3.9933L0.173913 7.02178C0.0579703 7.13791 0 7.27191 0 7.42379C0 7.57566 0.0579703 7.70966 0.173913 7.8258C0.236344 7.88833 0.296544 7.933 0.354515 7.9598C0.412486 7.9866 0.486064 8 0.575251 8C0.664437 8 0.738015 7.9866 0.795987 7.9598C0.853958 7.933 0.914158 7.88833 0.976589 7.8258L4 4.79732L7.02341 7.8258C7.08584 7.88833 7.15496 7.933 7.23077 7.9598C7.30658 7.9866 7.37124 8 7.42475 8C7.47826 8 7.54292 7.9866 7.61873 7.9598C7.69454 7.933 7.76366 7.88833 7.82609 7.8258C7.94203 7.70966 8 7.57566 8 7.42379C8 7.27191 7.94203 7.13791 7.82609 7.02178L4.80268 3.9933Z" fill="black"/>
</g>
<defs>
<clipPath id="clip0_4413_2209">
<rect width="8" height="8" fill="white"/>
</clipPath>
</defs>
</svg>
