<svg width="16" height="16" viewBox="0 0 16 16" fill="none" xmlns="http://www.w3.org/2000/svg">
<path fill-rule="evenodd" clip-rule="evenodd" d="M1.58884 4.13042C1.58242 4.17622 1.5791 4.223 1.5791 4.27057V11.6039C1.5791 11.652 1.5825 11.6994 1.58908 11.7457L5.28794 8.04687L1.58884 4.13042ZM2.39731 12.5874C2.45626 12.5982 2.51702 12.6039 2.5791 12.6039H13.4256C13.4863 12.6039 13.5457 12.5985 13.6035 12.5881L9.88321 8.86789C8.79244 9.80496 7.18586 9.79995 6.10223 8.88249L2.39731 12.5874ZM14.415 11.7498C14.422 11.7022 14.4256 11.6535 14.4256 11.6039V4.27057C14.4256 4.22195 14.4221 4.17415 14.4154 4.12739L10.6983 8.03303L14.415 11.7498ZM13.605 3.28662L9.25195 7.86044C9.23053 7.88294 9.20852 7.90487 9.18593 7.9262C8.4833 8.58985 7.37571 8.55824 6.71207 7.8556L2.43476 3.32697C2.42165 3.31309 2.40802 3.29999 2.39393 3.28768C2.45394 3.27644 2.51583 3.27057 2.5791 3.27057H13.4256C13.4868 3.27057 13.5468 3.27608 13.605 3.28662Z" fill="white"/>
</svg>
