<svg width="24" height="24" viewBox="0 0 24 24" fill="none" xmlns="http://www.w3.org/2000/svg">
<path d="M20 3.75732H4C2.897 3.75732 2 4.65432 2 5.75732V17.7573C2 18.8603 2.897 19.7573 4 19.7573H20C21.103 19.7573 22 18.8603 22 17.7573V5.75732C22 4.65432 21.103 3.75732 20 3.75732ZM20 5.75732V6.26832L12 12.4913L4 6.26932V5.75732H20ZM4 17.7573V8.80132L11.386 14.5463C11.5611 14.6839 11.7773 14.7586 12 14.7586C12.2227 14.7586 12.4389 14.6839 12.614 14.5463L20 8.80132L20.002 17.7573H4Z" fill="black"/>
</svg>
