<svg width="16" height="16" viewBox="0 0 16 16" fill="none" xmlns="http://www.w3.org/2000/svg">
<path d="M7.99148 0C6.87823 0 5.83884 0.210151 4.87327 0.630458C3.89634 1.03941 3.04722 1.60738 2.32588 2.3344C1.60454 3.06142 1.03373 3.9077 0.613419 4.87327C0.204471 5.8502 0 6.88959 0 7.99148C0 9.10473 0.204471 10.1441 0.613419 11.1097C1.03373 12.0866 1.60454 12.9357 2.32588 13.6571C3.04722 14.3784 3.89634 14.9492 4.87327 15.3695C5.83884 15.7898 6.87823 16 7.99148 16C9.10473 16 10.1441 15.7898 11.1097 15.3695C12.0866 14.9492 12.9357 14.3784 13.6571 13.6571C14.3784 12.9357 14.9492 12.0866 15.3695 11.1097C15.7785 10.1441 15.983 9.10473 15.983 7.99148C15.983 6.88959 15.7785 5.8502 15.3695 4.87327C14.9492 3.9077 14.3784 3.06142 13.6571 2.3344C12.9357 1.60738 12.0866 1.03941 11.1097 0.630458C10.1441 0.210151 9.10473 0 7.99148 0ZM7.99148 14.5346C7.08271 14.5346 6.23075 14.3642 5.43557 14.0234C4.64039 13.6826 3.94746 13.2169 3.35676 12.6262C2.76606 12.0355 2.30032 11.3426 1.95953 10.5474C1.61874 9.75221 1.44835 8.90025 1.44835 7.99148C1.44835 7.08271 1.61874 6.23075 1.95953 5.43557C2.30032 4.64039 2.76606 3.94746 3.35676 3.35676C3.94746 2.76606 4.64039 2.30032 5.43557 1.95953C6.23075 1.61874 7.08271 1.44835 7.99148 1.44835C8.90025 1.44835 9.75221 1.61874 10.5474 1.95953C11.3426 2.30032 12.0355 2.76606 12.6262 3.35676C13.2169 3.94746 13.6826 4.64039 14.0234 5.43557C14.3642 6.23075 14.5346 7.08271 14.5346 7.99148C14.5346 8.90025 14.3642 9.75221 14.0234 10.5474C13.6826 11.3426 13.2169 12.0355 12.6262 12.6262C12.0355 13.2169 11.3426 13.6826 10.5474 14.0234C9.75221 14.3642 8.90025 14.5346 7.99148 14.5346ZM7.99148 2.91374C7.28718 2.91374 6.62265 3.04437 5.99787 3.30564C5.38445 3.56692 4.84771 3.92758 4.38765 4.38765C3.92758 4.84771 3.56692 5.38445 3.30564 5.99787C3.03301 6.62265 2.8967 7.28718 2.8967 7.99148C2.8967 8.70714 3.03301 9.37167 3.30564 9.98509C3.56692 10.6099 3.92758 11.1494 4.38765 11.6038C4.84771 12.0582 5.38445 12.4217 5.99787 12.6944C6.62265 12.9556 7.28718 13.0863 7.99148 13.0863C8.69578 13.0863 9.36031 12.9556 9.98509 12.6944C10.5985 12.4217 11.1352 12.0582 11.5953 11.6038C12.0554 11.1494 12.416 10.6099 12.6773 9.98509C12.9499 9.37167 13.0863 8.70714 13.0863 7.99148C13.0863 7.28718 12.9499 6.62265 12.6773 5.99787C12.416 5.38445 12.0554 4.84771 11.5953 4.38765C11.1352 3.92758 10.5985 3.56692 9.98509 3.30564C9.36031 3.04437 8.69578 2.91374 7.99148 2.91374ZM7.99148 11.6379C7.4803 11.6379 7.0032 11.5414 6.56017 11.3482C6.11714 11.1665 5.73376 10.9109 5.41001 10.5815C5.08626 10.252 4.82783 9.86582 4.63472 9.42279C4.45296 8.97976 4.36209 8.50266 4.36209 7.99148C4.36209 7.49166 4.45296 7.02024 4.63472 6.57721C4.82783 6.13418 5.08626 5.74796 5.41001 5.41853C5.73376 5.0891 6.11714 4.83351 6.56017 4.65176C7.0032 4.45864 7.4803 4.36209 7.99148 4.36209C8.50266 4.36209 8.97976 4.45864 9.42279 4.65176C9.86582 4.83351 10.2492 5.0891 10.5729 5.41853C10.8967 5.74796 11.1551 6.13418 11.3482 6.57721C11.53 7.02024 11.6209 7.49166 11.6209 7.99148C11.6209 8.50266 11.53 8.97976 11.3482 9.42279C11.1551 9.86582 10.8967 10.252 10.5729 10.5815C10.2492 10.9109 9.86582 11.1665 9.42279 11.3482C8.97976 11.5414 8.50266 11.6379 7.99148 11.6379ZM7.99148 5.81044C7.37806 5.81044 6.8612 6.02059 6.44089 6.44089C6.02059 6.8612 5.81044 7.37806 5.81044 7.99148C5.81044 8.61626 6.02059 9.13596 6.44089 9.55059C6.8612 9.96521 7.37806 10.1725 7.99148 10.1725C8.6049 10.1725 9.12176 9.96521 9.54207 9.55059C9.96237 9.13596 10.1725 8.61626 10.1725 7.99148C10.1725 7.37806 9.96237 6.8612 9.54207 6.44089C9.12176 6.02059 8.6049 5.81044 7.99148 5.81044ZM7.99148 8.72417C7.77565 8.72417 7.59957 8.65886 7.46326 8.52822C7.32694 8.39758 7.25879 8.21867 7.25879 7.99148C7.25879 7.77565 7.32694 7.60241 7.46326 7.47178C7.59957 7.34114 7.77565 7.27583 7.99148 7.27583C8.20731 7.27583 8.38339 7.34114 8.5197 7.47178C8.65602 7.60241 8.72417 7.77565 8.72417 7.99148C8.72417 8.21867 8.65602 8.39758 8.5197 8.52822C8.38339 8.65886 8.20731 8.72417 7.99148 8.72417Z" fill="#470085"/>
</svg>
