<svg width="16" height="18" viewBox="0 0 16 18" fill="none" xmlns="http://www.w3.org/2000/svg">
<path d="M15.0147 8.00294H9.0088V1.99708C9.0088 1.68427 8.91496 1.43794 8.72727 1.25808C8.53959 1.07821 8.29717 0.988281 8 0.988281C7.70283 0.988281 7.46041 1.07821 7.27273 1.25808C7.08504 1.43794 6.9912 1.68427 6.9912 1.99708V8.00294H0.985337C0.688171 8.00294 0.449659 8.09287 0.269795 8.27274C0.0899303 8.4526 0 8.69111 0 8.98828C0 9.30109 0.0899303 9.54742 0.269795 9.72728C0.449659 9.90715 0.688171 9.99708 0.985337 9.99708H6.9912V16.0029C6.9912 16.3001 7.08504 16.5425 7.27273 16.7302C7.46041 16.9179 7.70283 17.0117 8 17.0117C8.29717 17.0117 8.53959 16.9179 8.72727 16.7302C8.91496 16.5425 9.0088 16.3001 9.0088 16.0029V9.99708H15.0147C15.3118 9.99708 15.5503 9.90715 15.7302 9.72728C15.9101 9.54742 16 9.30109 16 8.98828C16 8.69111 15.9101 8.4526 15.7302 8.27274C15.5503 8.09287 15.3118 8.00294 15.0147 8.00294Z" fill="#595CF3"/>
</svg>
