<svg width="24" height="25" viewBox="0 0 24 25" fill="none" xmlns="http://www.w3.org/2000/svg">
<g clip-path="url(#clip0_4381_1016)">
<path fill-rule="evenodd" clip-rule="evenodd" d="M9 2.5C5.13401 2.5 2 5.63401 2 9.5C2 13.366 5.13401 16.5 9 16.5C12.866 16.5 16 13.366 16 9.5C16 5.63401 12.866 2.5 9 2.5ZM0 9.5C0 4.52944 4.02944 0.5 9 0.5C13.9706 0.5 18 4.52944 18 9.5C18 11.625 17.2635 13.578 16.0319 15.1177L23.2071 22.2929C23.5976 22.6834 23.5976 23.3166 23.2071 23.7071C22.8166 24.0976 22.1834 24.0976 21.7929 23.7071L14.6177 16.5319C13.078 17.7635 11.125 18.5 9 18.5C4.02944 18.5 0 14.4706 0 9.5Z" fill="black"/>
</g>
<defs>
<clipPath id="clip0_4381_1016">
<rect width="24" height="24" fill="white" transform="translate(0 0.5)"/>
</clipPath>
</defs>
</svg>
