<svg width="16" height="16" viewBox="0 0 16 16" fill="none" xmlns="http://www.w3.org/2000/svg">
<g clip-path="url(#clip0_4381_1478)">
<path d="M15.669 4.3116C16.0035 5.58813 16.0035 8.25113 16.0035 8.25113C16.0035 8.25113 16.0035 10.9143 15.669 12.1907C15.485 12.8947 14.9428 13.4495 14.2542 13.6376C13.0062 13.9797 8.00168 13.9797 8.00168 13.9797C8.00168 13.9797 2.9973 13.9797 1.74927 13.6376C1.06071 13.4495 0.518498 12.8947 0.334468 12.1907C2.98023e-08 10.9143 0 8.25113 0 8.25113C0 8.25113 2.98023e-08 5.58813 0.334468 4.3116C0.518498 3.60752 1.06071 3.05285 1.74927 2.86464C2.9973 2.52271 8.00168 2.52271 8.00168 2.52271C8.00168 2.52271 13.0062 2.52271 14.2542 2.86464C14.9428 3.05285 15.485 3.60752 15.669 4.3116ZM6.4014 10.7062L10.559 8.25126L6.4014 5.79601V10.7062Z" fill="white"/>
</g>
<defs>
<clipPath id="clip0_4381_1478">
<rect width="16" height="16" fill="white"/>
</clipPath>
</defs>
</svg>
